<svg width="157" height="43" viewBox="0 0 157 43" xmlns="http://www.w3.org/2000/svg" xmlns:xlink="http://www.w3.org/1999/xlink">
    <defs>
        <linearGradient x1="13.307%" y1="13.967%" x2="88.058%" y2="84.946%" id="i5g89c606c">
            <stop stop-color="#FFCD05" offset="0%"/>
            <stop stop-color="#D89124" offset="100%"/>
        </linearGradient>
        <linearGradient x1="8.377%" y1="48.217%" x2="89.447%" y2="47.123%" id="fassckrtcd">
            <stop stop-color="#3854B0" offset="0%"/>
            <stop stop-color="#5492DC" offset="45.777%"/>
            <stop stop-color="#3881CC" offset="74.185%"/>
            <stop stop-color="#6CB5F2" offset="100%"/>
        </linearGradient>
        <linearGradient x1="92.468%" y1="45.398%" x2="3.678%" y2="46.473%" id="53pea9ce0e">
            <stop stop-color="#FAD827" offset="0%"/>
            <stop stop-color="#FFD500" offset="38.269%"/>
            <stop stop-color="#F7C41C" offset="65.166%"/>
            <stop stop-color="#C08500" offset="100%"/>
        </linearGradient>
        <linearGradient x1="7.854%" y1="43.143%" x2="84.58%" y2="12.694%" id="hd5hfyu1df">
            <stop stop-color="#F3BF1A" offset="0%"/>
            <stop stop-color="#CA9105" offset="100%"/>
        </linearGradient>
        <path d="m62.131.088 4.074 13.034.085-.004L68.752.176h3.617l-4.83 21.681-1.378.032L61.5 8.037l-.042-.126-4.563 13.978-1.379-.032L50.626.176h3.679L56.79 13.17l.088.005L60.9.088h1.232zM92.491 0c5.005 0 7.244 2.85 7.244 5.673 0 2.233-.97 3.87-2.886 4.866l-.088.044.092.037c2.142.85 3.32 2.652 3.32 5.07 0 3.806-2.897 6.167-7.562 6.167-1.307 0-3.18-.122-4.454-.291l-.07-.01V.332l.07-.01C89.476.138 91.342 0 92.491 0zM10.506.191v3.19H3.462v6.187H9.66v3.104H3.462v9.027H0V.191h10.506zm6.085 0v21.508h-3.465V.19h3.465zm6.729 0v18.316h6.84v3.192H19.855V.19h3.464zM34.119.104 40.47 12.62l.041.08L46.906.103h1.635V21.7h-3.275v-.08l.027-11.99-.085-.02-4.47 8.77h-.45l-4.47-8.77-.084.02.026 11.99-.002.08h-3.271V.104h1.632zm51.065.072v3.19h-7.192v5.75h6.49v3.132h-6.49v6.244h7.192v3.192H74.528V.176h10.656zm7.719 11.809c-.412 0-1.013.022-1.373.07l-.038.004v6.65l.038.004c.375.045.95.101 1.579.101 2.18 0 3.483-1.298 3.483-3.473 0-2.008-1.482-3.356-3.69-3.356zm.03-8.881c-.387 0-.945.016-1.403.095l-.038.008v6.178l.042.004c.186.015.685.048 1.28.048 2.178 0 3.428-1.171 3.428-3.21 0-1.985-1.208-3.123-3.31-3.123z" id="8xrn2jz7ca"/>
        <path d="M18.065 0c9.976 0 18.064 8.059 18.064 18s-8.088 18-18.064 18C8.088 36 0 27.941 0 18S8.088 0 18.065 0zm-5.03 23.076-.243.005a3.431 3.431 0 0 0-2.287.995l-.152.162c-.587.655-.881 1.44-.881 2.36l.004.225c.038.89.374 1.65.997 2.297l.162.155c.659.594 1.445.889 2.369.889h.043l.238-.007a3.427 3.427 0 0 0 2.246-.994l.154-.164c.591-.665.886-1.446.898-2.361l-.004-.225c-.04-.889-.383-1.65-1.013-2.294l-.162-.155c-.657-.595-1.442-.888-2.368-.888zM23.3 6.636l-1.563 3.082.32.168a9.127 9.127 0 0 1 1.522 1.066l.195.176c.129.12.257.244.385.373l.184.2.18.21.231.268c.226.27.439.549.632.846l.152.242.15.244.168.315c.162.318.306.643.424.983l.122.354c.266.835.394 1.736.394 2.682l-.006.374A8.526 8.526 0 0 1 26.24 21l-.146.352c-.104.233-.218.462-.34.69l-.118.201c-.08.132-.162.26-.25.391l-.204.312c-.21.31-.436.614-.688.91l-.163.185-.172.194v.03l-.151.13-.15.131-.284.24a9.356 9.356 0 0 1-1.837 1.172l1.604 3.073.373-.189a12.025 12.025 0 0 0 2.448-1.7l.056-.074.062-.078.167-.143.17-.146.079-.074.305-.318c1.193-1.282 2.074-2.697 2.633-4.247l.111-.367c.07-.248.132-.5.189-.75l.09-.421c.167-.85.247-1.738.247-2.66l-.003-.438a12.918 12.918 0 0 0-.299-2.49l-.11-.48a16.039 16.039 0 0 0-.259-.926l-.17-.42a12.13 12.13 0 0 0-1.929-3.098l-.264-.295a18.853 18.853 0 0 0-.541-.571l-.046-.042-.034-.035-.186-.257-.058-.021-.056-.02-.308-.284a11.64 11.64 0 0 0-1.968-1.426l-.03-.04-.034-.033-.225-.118a7.757 7.757 0 0 0-.451-.215zM7.633 14.042l-.227.004c-.897.039-1.666.373-2.321 1.001l-.153.163c-.587.66-.882 1.45-.882 2.374l.003.226c.037.895.373 1.663 1 2.312l.163.156c.663.596 1.455.894 2.386.894h.042l.24-.007a3.446 3.446 0 0 0 2.26-1.002L10.3 20c.593-.667.889-1.453.9-2.373l-.003-.227c-.039-.894-.386-1.66-1.016-2.309l-.163-.156c-.661-.597-1.453-.892-2.384-.892zm13.77 2.022h-6.005v3.716h6.005v-3.716zm-8.46-10.91-.226.004a3.429 3.429 0 0 0-2.308.996l-.152.161c-.584.656-.881 1.44-.881 2.363l.005.243c.044.882.379 1.637.996 2.28l.162.154c.659.593 1.446.887 2.374.887h.05l.238-.007a3.426 3.426 0 0 0 2.242-.994l.165-.177c.58-.66.87-1.44.883-2.346l-.004-.225c-.042-.891-.385-1.653-1.01-2.297l-.162-.155c-.66-.595-1.446-.886-2.372-.886z" id="so7gkyoanb"/>
    </defs>
    <g fill="none" fill-rule="evenodd">
        <use fill="#FFF" xlink:href="#8xrn2jz7ca" transform="translate(43.612 13.78)"/>
        <use fill="url(#i5g89c606c)" xlink:href="#so7gkyoanb" transform="translate(0 7)"/>
        <g>
            <path d="M.067 4.938C8.825.904 14.669-.659 17.599.251c2.407.747 2.632 2.341 2.801 3.778.14 1.186.318 2.232.998 2.9 1.106.796 3.049-.744 4.092-.995.695-.168 1.284-.246 1.769-.236L32 13.823c-1.06-.014-1.945.113-2.656.379-2.155.806-4.607 2.393-5.82 2.638-1.811.366-2.659.122-2.542-.73l-1.236-3.96c-1.248.276-2.168.536-2.758.78-1.283.528-2.454 1.33-3.785 2.066-2.25 1.246-4.557 2.725-6.92 4.44l-2.465-7.803L.067 4.938z" fill="url(#fassckrtcd)" transform="translate(125)"/>
            <path d="M3.734 11.68a681.547 681.547 0 0 1 7.91-3.515c3.4-1.468 8.763-2.1 9.754-1.236.712 1.64 1.007 1.974 1.864 3.944.499 1.148 2.297-.493 3.361-.824.71-.22 1.72-.331 3.032-.331L32 13.823s-.919-.053-2.106.281c-1.64.463-3.746 1.608-4.661 2.148-1.051.62-2.244.87-3.58.745-.52-.182-.809-.496-.867-.945-.078-.596-.28-1.396-.529-2.23-.244-.814-.53-1.67-.956-1.531-1.138.37-2.6.881-4.373 1.813-1.246.655-3.467 1.982-6.664 3.982l-1.981 1.35-2.549-7.756z" fill="url(#53pea9ce0e)" transform="translate(125)"/>
            <path stroke="#979797" stroke-width="1.048" stroke-linecap="round" stroke-linejoin="round" d="M125 4.731 137.81 32"/>
            <path d="M18.93 12.372c2.272-1.395 3.8-1.816 4.587-1.263.786.553-.124 2.24-2.73 5.059l-1.858-3.796z" fill="url(#hd5hfyu1df)" transform="translate(125)"/>
        </g>
    </g>
</svg>
